<?xml version="1.0" encoding="UTF-8" standalone="no"?>
<!-- Created with Inkscape (http://www.inkscape.org/) -->

<svg
   width="480"
   height="640"
   viewBox="0 0 127 169.33332"
   version="1.1"
   id="svg1"
   xml:space="preserve"
   inkscape:version="1.3.2 (091e20e, 2023-11-25)"
   sodipodi:docname="logo-instamint.svg"
   inkscape:export-filename="logo-instamint.png"
   inkscape:export-xdpi="300"
   inkscape:export-ydpi="300"
   xmlns:inkscape="http://www.inkscape.org/namespaces/inkscape"
   xmlns:sodipodi="http://sodipodi.sourceforge.net/DTD/sodipodi-0.dtd"
   xmlns="http://www.w3.org/2000/svg"
   xmlns:svg="http://www.w3.org/2000/svg"><sodipodi:namedview
     id="namedview1"
     pagecolor="#ffffff"
     bordercolor="#000000"
     borderopacity="0.25"
     inkscape:showpageshadow="2"
     inkscape:pageopacity="0.0"
     inkscape:pagecheckerboard="0"
     inkscape:deskcolor="#d1d1d1"
     inkscape:document-units="px"
     inkscape:zoom="0.94474255"
     inkscape:cx="270.44405"
     inkscape:cy="253.50822"
     inkscape:window-width="1472"
     inkscape:window-height="891"
     inkscape:window-x="0"
     inkscape:window-y="37"
     inkscape:window-maximized="0"
     inkscape:current-layer="g41"
     inkscape:clip-to-page="true" /><defs
     id="defs1"><pattern
       patternUnits="userSpaceOnUse"
       width="100"
       height="100"
       id="Gingham"
       preserveAspectRatio="xMidYMid"
       patternTransform="scale(0.5,0.5)"
       style="fill:#0000ff">
      <rect
   style="fill-opacity:0.5;stroke:none"
   id="rect3"
   width="50"
   height="50"
   x="50"
   y="0" />
      <rect
   style="stroke:none"
   id="rect4"
   width="50"
   height="50"
   x="50"
   y="50" />
      <rect
   style="fill-opacity:0.5;stroke:none"
   id="rect5"
   width="50"
   height="50"
   x="0"
   y="50" />
    </pattern></defs><g
     inkscape:label="Layer 1"
     inkscape:groupmode="layer"
     id="layer1"
     transform="translate(83.253446,59.265162)"><g
       id="g41"
       transform="matrix(1.1428564,0,0,1.1661581,11.893529,-5.9469388)"
       style="display:inline"><path
         d="m -37.253153,-3.0267343 c -8.389263,0.010604 -16.781831,0.2050989 -25.142651,0.5007447 0.729033,22.8693676 1.662193,45.0327666 2.394169,67.6062096 2.510131,2.141518 43.174357,0.665956 44.284635,0.170015 1.206555,-1.508809 2.54607,-51.19876 3.586345,-67.6744221 -8.347606,-0.439657 -16.733235,-0.6131512 -25.122498,-0.6025472 z"
         style="fill:#55ff99;stroke-width:1.41342"
         id="path41" /><path
         d="m -43.714257,-17.237753 c -9.892637,-0.02424 -19.784704,0.01421 -29.857609,0.305924 0.526203,35.721215 1.845474,66.311866 2.872692,95.572461 17.267193,-0.134899 53.094552,0.799135 67.5400639,-0.42633 1.5065894,-29.672073 5.0156266,-87.3326273 5.2875326,-92.895622 0.1139237,-2.403431 -8.8902057,-2.471367 -15.9793865,-2.487187 -10.076938,0.04168 -19.970657,-0.04501 -29.863293,-0.06925 z m 5.674589,8.7477863 c 14.454785,0.04156 29.1850118,0.317928 30.9030229,0.8154541 1.4723736,3.41471 -2.4512828,54.8416196 -3.7222529,77.5156816 -3.96372,1.903735 -52.425118,1.038905 -53.730054,0.129708 -0.55685,-1.677145 -3.734573,-76.1324978 -2.702678,-77.8675982 0.617719,-0.4414797 14.797176,-0.6348054 29.251962,-0.5932455 z"
         style="fill:#55ff99;stroke-width:1.41342"
         id="path39" /><path
         d="m -34.371675,-22.876173 c 1.194126,-5.81811 3.52844,-15.44585 1.074353,-18.626253 -4.583457,-5.675325 -13.317808,-4.9587 -19.197278,-1.756482 -4.274078,2.515008 -8.177177,0.830194 -10.806059,-0.387573 -5.838756,-2.13306 -14.215418,-2.547093 -19.224149,0.730705 -1.755795,6.587023 -0.113452,16.128653 2.523877,22.241536 0.792501,43.64586 3.916598,118.807711 4.533573,119.298145 0.72991,0.650735 70.0998067,1.673395 76.7911784,-0.249081 C 2.7097714,70.108222 5.4035308,34.647445 6.549858,7.2455069 6.4745189,0.89351871 11.79657,4.8222629 19.524777,-1.852129 32.139941,-12.631162 29.299609,-31.247127 18.69692,-38.59924 c -5.999986,-4.551477 -13.8639316,-5.217422 -20.9139687,-3.060795 -7.1963161,2.281056 -15.3105263,8.806368 -15.3711543,18.860347 -11.560655,-0.173552 -4.102213,0.165834 -16.783472,-0.07649 z m -7.802108,-17.634061 c 0.438132,-0.003 0.865151,0.01991 1.276408,0.07028 8.576172,1.316981 2.457134,14.170434 -2.022616,17.401005 -1.329079,0.519362 -2.795121,0.509971 -4.197159,0.590661 -6.284581,0.893946 1.2808,-4.679341 0.523999,-6.665743 -1.740771,-3.706255 -7.220864,2.040049 -7.823295,1.218014 -3.423439,-6.681242 5.670684,-12.568483 12.242663,-12.614217 z m -30.62242,0.0083 c 5.110771,-0.221783 11.969652,3.818483 12.597681,8.496639 1.867889,5.928096 -4.951358,1.077617 -6.455937,1.612821 -4.139533,1.381618 2.388642,6.528157 1.967322,7.278109 -0.780634,1.277215 -3.052555,0.732139 -3.803386,0.737939 -7.642231,-0.258229 -9.873437,-8.429654 -9.442318,-14.840954 0.851495,-2.202307 2.81356,-3.183744 5.136638,-3.284554 z m 79.1166177,2.456697 c 3.6888093,0.05523 7.4634463,1.38651 10.8536013,4.682919 8.335958,7.097789 8.988422,23.4293414 -5.214152,30.4172645 C 3.4849241,1.2335867 7.3702689,-11.578913 7.6355799,-16.314295 8.043736,-23.381657 -7.6535726,-22.653366 -11.873307,-22.670496 -15.041491,-26.889699 -4.7460154,-38.21097 6.3204147,-38.045269 Z m -50.0346717,20.807516 c 9.892656,0.02424 19.786335,0.110927 29.863293,0.06925 7.0891948,0.01582 16.0933104,0.08375 15.9793865,2.487187 -0.2719066,5.5630059 -3.7809402,63.223491 -5.2875326,92.895622 -14.4455399,1.225469 -50.2728369,0.291431 -67.5400639,0.42633 -1.02722,-29.260655 -2.346487,-59.851176 -2.872692,-95.572461 10.072925,-0.291714 19.964952,-0.330163 29.857609,-0.305924 z m 6.873999,101.208292 c 16.012385,-0.07785 31.9976496,0.169503 32.7793942,0.810287 0.5346212,2.211126 0.7232253,4.789295 -0.1023193,7.67085 -5.82e-5,2.715988 -64.1244319,1.319114 -65.3913579,0.285253 -0.722267,-1.059294 -1.233055,-5.386682 -0.228926,-7.624857 0.890947,-0.660364 16.930823,-1.063683 32.943209,-1.141533 z"
         style="stroke-width:1.41342"
         id="path30"
         sodipodi:nodetypes="cccccccccccccccccccccscccccscccccccscccccsssccccs" /><path
         d="m -36.840258,83.970539 c -16.012386,0.07785 -32.052262,0.481169 -32.943209,1.141533 -1.004129,2.238175 -0.493341,6.565563 0.228926,7.624857 1.266926,1.033861 65.3912997,2.430735 65.3913579,-0.285253 0.8255446,-2.881555 0.6369405,-5.459724 0.1023193,-7.67085 C -4.8426084,84.140042 -20.827873,83.89269 -36.840258,83.970539 Z"
         style="fill:#37c871;fill-opacity:1;stroke-width:1.41342"
         id="path35" /><path
         d="m -47.044287,8.8676302 c -2.481587,-0.129539 -4.49355,1.3925838 -2.54403,5.2327558 1.234028,2.439845 4.742135,4.371239 7.02076,2.040185 2.680694,-4.209632 -1.286112,-7.1063909 -4.47673,-7.2729408 z"
         style="fill:#b3ff80;stroke-width:1.41342"
         id="path38" /><path
         d="m 6.3204147,-38.045269 c -11.0664301,-0.165701 -21.3619057,11.15557 -18.1937217,15.374773 4.2197344,0.01713 19.917043,-0.711161 19.5088869,6.356201 -0.265311,4.735382 -4.1506558,17.5478817 4.3242841,13.3692095 14.202574,-6.9879231 13.55011,-23.3194755 5.214152,-30.4172645 -3.390155,-3.296409 -7.164792,-4.627689 -10.8536013,-4.682919 z"
         style="fill:#b3ff80;stroke-width:1.41342"
         id="path33" /><path
         d="m -72.796203,-40.501966 c -2.323078,0.10081 -4.285143,1.082247 -5.136638,3.284554 -0.431119,6.4113 1.800087,14.582725 9.442318,14.840954 0.750831,-0.0058 3.022752,0.539276 3.803386,-0.737939 0.42132,-0.749952 -6.106855,-5.896491 -1.967322,-7.278109 1.504579,-0.535204 8.323826,4.315275 6.455937,-1.612821 -0.628029,-4.678156 -7.48691,-8.718422 -12.597681,-8.496639 z"
         style="fill:#37c871;stroke-width:1.41342"
         id="path32" /><path
         d="m -42.173783,-40.510234 c -6.571979,0.04573 -15.666102,5.932975 -12.242663,12.614217 0.602431,0.822035 6.082524,-4.924269 7.823295,-1.218014 0.756801,1.986402 -6.80858,7.559689 -0.523999,6.665743 1.402038,-0.08069 2.86808,-0.0713 4.197159,-0.590661 4.47975,-3.230571 10.598788,-16.084024 2.022616,-17.401005 -0.411257,-0.05037 -0.838276,-0.07328 -1.276408,-0.07028 z"
         style="fill:#37c871;stroke-width:1.41342"
         id="path31" /><path
         d="m -27.697664,33.685754 c -6.968224,-0.09487 -17.931402,11.941857 -11.132137,11.475785 4.942237,-1.96326 6.588246,-1.024259 4.236951,4.018876 -0.534307,7.115067 16.454953,-7.415486 10.217464,-14.037386 -0.878222,-1.006047 -2.031866,-1.439705 -3.322278,-1.457275 z"
         style="fill:#b3ff80;stroke-width:1.41342"
         id="path28" /><path
         d="m -28.797855,28.611128 c -4.023548,0.105416 -8.826816,2.160105 -13.68857,6.911723 -5.590847,6.083735 -5.329714,14.478112 -1.500167,18.325496 3.870071,3.735397 15.154363,4.10956 20.557401,-2.43396 9.247594,-11.627268 4.615987,-22.443868 -4.574397,-22.798608 -0.261091,-0.01008 -0.526031,-0.01168 -0.794267,-0.0047 z m 1.100191,5.074626 c 1.290412,0.01757 2.444056,0.451228 3.322278,1.457275 6.237489,6.6219 -10.751771,21.152453 -10.217464,14.037386 2.351295,-5.043135 0.705286,-5.982136 -4.236951,-4.018876 -6.799265,0.466072 4.163913,-11.570656 11.132137,-11.475785 z"
         style="fill:#16502d;stroke-width:1.41342"
         id="path27" /><path
         d="m -50.547432,3.1563509 c -0.462715,0.014652 -0.920375,0.05203 -1.369942,0.1126546 -7.679379,2.3494624 -2.954261,14.4658905 2.055688,17.6051265 4.888229,2.686703 12.390932,1.270643 12.991972,-5.227071 1.331501,-7.8298823 -6.736997,-12.7104869 -13.677718,-12.4907101 z m 3.503145,5.7112793 c 3.190618,0.1665499 7.157424,3.0633088 4.47673,7.2729408 -2.278625,2.331054 -5.786732,0.39966 -7.02076,-2.040185 -1.94952,-3.840172 0.06244,-5.3622948 2.54403,-5.2327558 z"
         style="fill:#16502d;stroke-width:1.41342"
         id="path37" /><path
         d="m -38.039668,-8.4899667 c -14.454786,-0.04156 -28.634243,0.1517658 -29.251962,0.5932455 -1.031895,1.7351004 2.145828,76.1904532 2.702678,77.8675982 1.304936,0.909197 49.766334,1.774027 53.730054,-0.129708 1.2709701,-22.674062 5.1946265,-74.1009716 3.7222529,-77.5156816 -1.7180111,-0.4975261 -16.4482379,-0.7738939 -30.9030229,-0.8154541 z m 0.786515,5.4632324 c 8.389263,-0.010604 16.774892,0.1628902 25.122498,0.6025472 -1.040275,16.4756621 -2.37979,66.1656131 -3.586345,67.6744221 -1.110278,0.495941 -41.774504,1.971503 -44.284635,-0.170015 -0.731976,-22.573443 -1.665136,-44.736842 -2.394169,-67.6062096 8.36082,-0.2956458 16.753388,-0.4901405 25.142651,-0.5007447 z"
         style="stroke-width:1.41342"
         id="path40" /></g></g></svg>
